<?xml version="1.0" encoding="UTF-8" standalone="no"?>
<!DOCTYPE svg PUBLIC "-//W3C//DTD SVG 1.1//EN"
 "http://www.w3.org/Graphics/SVG/1.1/DTD/svg11.dtd">
<!-- Generated by graphviz version 2.43.0 (0)
 -->
<!-- Title: workflow Pages: 1 -->
<svg width="387pt" height="80pt"
 viewBox="0.00 0.00 387.00 80.00" xmlns="http://www.w3.org/2000/svg" xmlns:xlink="http://www.w3.org/1999/xlink">
<g id="graph0" class="graph" transform="scale(1 1) rotate(0) translate(4 76)">
<title>workflow</title>
<polygon fill="white" stroke="transparent" points="-4,4 -4,-76 383,-76 383,4 -4,4"/>
<!-- place_0a7b38b716933a39c0bca66f229cd6d52f0c1271 -->
<g id="node1" class="node">
<title>place_0a7b38b716933a39c0bca66f229cd6d52f0c1271</title>
<ellipse fill="lightblue" stroke="#333333" cx="36" cy="-36" rx="36" ry="36"/>
<text text-anchor="middle" x="36" y="-33.8" font-family="Arial" font-size="9.00">PENDING</text>
</g>
<!-- place_77e1a014e401595d39d3465871ee657d9e4cd475 -->
<g id="node2" class="node">
<title>place_77e1a014e401595d39d3465871ee657d9e4cd475</title>
<ellipse fill="none" stroke="#333333" cx="190" cy="-36" rx="36" ry="36"/>
<text text-anchor="middle" x="190" y="-33.8" font-family="Arial" font-size="9.00">IN_GAME</text>
</g>
<!-- place_0a7b38b716933a39c0bca66f229cd6d52f0c1271&#45;&gt;place_77e1a014e401595d39d3465871ee657d9e4cd475 -->
<g id="edge1" class="edge">
<title>place_0a7b38b716933a39c0bca66f229cd6d52f0c1271&#45;&gt;place_77e1a014e401595d39d3465871ee657d9e4cd475</title>
<path fill="none" stroke="#333333" d="M72.25,-36C95.08,-36 124.88,-36 148.65,-36"/>
<polygon fill="#333333" stroke="#333333" points="148.94,-37.75 153.94,-36 148.94,-34.25 148.94,-37.75"/>
<text text-anchor="middle" x="113" y="-38.8" font-family="Arial" font-size="9.00">start_game</text>
</g>
<!-- place_d5d26ffd720c54a83656fe2a81eeb2e6c769333e -->
<g id="node3" class="node">
<title>place_d5d26ffd720c54a83656fe2a81eeb2e6c769333e</title>
<ellipse fill="none" stroke="#333333" cx="343" cy="-36" rx="36" ry="36"/>
<text text-anchor="middle" x="343" y="-33.8" font-family="Arial" font-size="9.00">ENDED</text>
</g>
<!-- place_77e1a014e401595d39d3465871ee657d9e4cd475&#45;&gt;place_d5d26ffd720c54a83656fe2a81eeb2e6c769333e -->
<g id="edge2" class="edge">
<title>place_77e1a014e401595d39d3465871ee657d9e4cd475&#45;&gt;place_d5d26ffd720c54a83656fe2a81eeb2e6c769333e</title>
<path fill="none" stroke="#333333" d="M226.02,-36C248.62,-36 278.09,-36 301.66,-36"/>
<polygon fill="#333333" stroke="#333333" points="301.91,-37.75 306.91,-36 301.91,-34.25 301.91,-37.75"/>
<text text-anchor="middle" x="266.5" y="-38.8" font-family="Arial" font-size="9.00">end_game</text>
</g>
</g>
</svg>
